<?xml version="1.0" encoding="UTF-8" standalone="no"?>
<!DOCTYPE svg PUBLIC "-//W3C//DTD SVG 1.1//EN"
 "http://www.w3.org/Graphics/SVG/1.1/DTD/svg11.dtd">
<!-- Generated by graphviz version 9.0.0 (20230911.1827)
 -->
<!-- Pages: 1 -->
<svg width="616pt" height="1676pt"
 viewBox="0.00 0.00 615.81 1676.00" xmlns="http://www.w3.org/2000/svg" xmlns:xlink="http://www.w3.org/1999/xlink">
<g id="graph0" class="graph" transform="scale(1 1) rotate(0) translate(4 1672)">
<polygon fill="white" stroke="none" points="-4,4 -4,-1672 611.81,-1672 611.81,4 -4,4"/>
<!-- 0 -->
<g id="node1" class="node">
<title>0</title>
<ellipse fill="none" stroke="black" cx="95" cy="-1650" rx="31.39" ry="18"/>
<text text-anchor="middle" x="95" y="-1644.95" font-family="Times,serif" font-size="14.00">(0, 1)</text>
</g>
<!-- 312 -->
<g id="node2" class="node">
<title>312</title>
<ellipse fill="none" stroke="black" cx="95" cy="-1561.5" rx="36" ry="18"/>
<text text-anchor="middle" x="95" y="-1556.45" font-family="Times,serif" font-size="14.00">(5, 17)</text>
</g>
<!-- 0&#45;&#45;312 -->
<g id="edge1" class="edge">
<title>0&#45;&#45;312</title>
<path fill="none" stroke="black" d="M95,-1631.91C95,-1616.84 95,-1594.99 95,-1579.85"/>
<text text-anchor="middle" x="105.12" y="-1600.7" font-family="Times,serif" font-size="14.00">117</text>
</g>
<!-- 859 -->
<g id="node5" class="node">
<title>859</title>
<ellipse fill="none" stroke="black" cx="46" cy="-1473" rx="40.6" ry="18"/>
<text text-anchor="middle" x="46" y="-1467.95" font-family="Times,serif" font-size="14.00">(13, 33)</text>
</g>
<!-- 312&#45;&#45;859 -->
<g id="edge5" class="edge">
<title>312&#45;&#45;859</title>
<path fill="none" stroke="black" d="M85.55,-1543.82C76.93,-1528.6 64.25,-1506.22 55.58,-1490.92"/>
<text text-anchor="middle" x="85.12" y="-1512.2" font-family="Times,serif" font-size="14.00">104</text>
</g>
<!-- 1924 -->
<g id="node7" class="node">
<title>1924</title>
<ellipse fill="none" stroke="black" cx="145" cy="-1473" rx="40.6" ry="18"/>
<text text-anchor="middle" x="145" y="-1467.95" font-family="Times,serif" font-size="14.00">(29, 19)</text>
</g>
<!-- 312&#45;&#45;1924 -->
<g id="edge9" class="edge">
<title>312&#45;&#45;1924</title>
<path fill="none" stroke="black" d="M104.64,-1543.82C113.43,-1528.6 126.37,-1506.22 135.22,-1490.92"/>
<text text-anchor="middle" x="135.12" y="-1512.2" font-family="Times,serif" font-size="14.00">142</text>
</g>
<!-- 343 -->
<g id="node3" class="node">
<title>343</title>
<ellipse fill="none" stroke="black" cx="36" cy="-1030.5" rx="36" ry="18"/>
<text text-anchor="middle" x="36" y="-1025.45" font-family="Times,serif" font-size="14.00">(5, 67)</text>
</g>
<!-- 628 -->
<g id="node4" class="node">
<title>628</title>
<ellipse fill="none" stroke="black" cx="74" cy="-195" rx="36" ry="18"/>
<text text-anchor="middle" x="74" y="-189.95" font-family="Times,serif" font-size="14.00">(9, 81)</text>
</g>
<!-- 343&#45;&#45;628 -->
<g id="edge3" class="edge">
<title>343&#45;&#45;628</title>
<path fill="none" stroke="black" d="M36,-1012.24C36,-991.26 36,-954.78 36,-923.5 36,-923.5 36,-923.5 36,-282.5 36,-256.26 50.84,-229.03 61.97,-212.3"/>
<text text-anchor="middle" x="42.75" y="-588.2" font-family="Times,serif" font-size="14.00">98</text>
</g>
<!-- 859&#45;&#45;343 -->
<g id="edge2" class="edge">
<title>859&#45;&#45;343</title>
<path fill="none" stroke="black" d="M42.83,-1454.84C39.9,-1437.43 36,-1409.69 36,-1385.5 36,-1385.5 36,-1385.5 36,-1118 36,-1093.97 36,-1066.19 36,-1048.73"/>
<text text-anchor="middle" x="46.12" y="-1246.7" font-family="Times,serif" font-size="14.00">190</text>
</g>
<!-- 2216 -->
<g id="node9" class="node">
<title>2216</title>
<ellipse fill="none" stroke="black" cx="105" cy="-1384.5" rx="40.6" ry="18"/>
<text text-anchor="middle" x="105" y="-1379.45" font-family="Times,serif" font-size="14.00">(33, 41)</text>
</g>
<!-- 859&#45;&#45;2216 -->
<g id="edge13" class="edge">
<title>859&#45;&#45;2216</title>
<path fill="none" stroke="black" d="M57.37,-1455.32C67.82,-1440 83.22,-1417.43 93.66,-1402.13"/>
<text text-anchor="middle" x="91.12" y="-1423.7" font-family="Times,serif" font-size="14.00">124</text>
</g>
<!-- 1318 -->
<g id="node6" class="node">
<title>1318</title>
<ellipse fill="none" stroke="black" cx="225" cy="-283.5" rx="45.21" ry="18"/>
<text text-anchor="middle" x="225" y="-278.45" font-family="Times,serif" font-size="14.00">(19, 111)</text>
</g>
<!-- 1318&#45;&#45;628 -->
<g id="edge6" class="edge">
<title>1318&#45;&#45;628</title>
<path fill="none" stroke="black" d="M200.06,-268.22C171.41,-251.81 124.79,-225.1 96.99,-209.17"/>
<text text-anchor="middle" x="174.12" y="-234.2" font-family="Times,serif" font-size="14.00">280</text>
</g>
<!-- 2012 -->
<g id="node8" class="node">
<title>2012</title>
<ellipse fill="none" stroke="black" cx="289" cy="-195" rx="45.21" ry="18"/>
<text text-anchor="middle" x="289" y="-189.95" font-family="Times,serif" font-size="14.00">(29, 137)</text>
</g>
<!-- 1318&#45;&#45;2012 -->
<g id="edge4" class="edge">
<title>1318&#45;&#45;2012</title>
<path fill="none" stroke="black" d="M237.34,-265.82C248.67,-250.5 265.37,-227.93 276.7,-212.63"/>
<text text-anchor="middle" x="273.12" y="-234.2" font-family="Times,serif" font-size="14.00">376</text>
</g>
<!-- 1924&#45;&#45;2216 -->
<g id="edge10" class="edge">
<title>1924&#45;&#45;2216</title>
<path fill="none" stroke="black" d="M137.09,-1454.91C130.08,-1439.75 119.89,-1417.71 112.88,-1402.55"/>
<text text-anchor="middle" x="139.12" y="-1423.7" font-family="Times,serif" font-size="14.00">158</text>
</g>
<!-- 3929 -->
<g id="node14" class="node">
<title>3929</title>
<ellipse fill="none" stroke="black" cx="204" cy="-1384.5" rx="40.6" ry="18"/>
<text text-anchor="middle" x="204" y="-1379.45" font-family="Times,serif" font-size="14.00">(59, 11)</text>
</g>
<!-- 1924&#45;&#45;3929 -->
<g id="edge20" class="edge">
<title>1924&#45;&#45;3929</title>
<path fill="none" stroke="black" d="M156.37,-1455.32C166.82,-1440 182.22,-1417.43 192.66,-1402.13"/>
<text text-anchor="middle" x="190.12" y="-1423.7" font-family="Times,serif" font-size="14.00">350</text>
</g>
<!-- 4148 -->
<g id="node15" class="node">
<title>4148</title>
<ellipse fill="none" stroke="black" cx="332" cy="-106.5" rx="45.21" ry="18"/>
<text text-anchor="middle" x="332" y="-101.45" font-family="Times,serif" font-size="14.00">(61, 137)</text>
</g>
<!-- 2012&#45;&#45;4148 -->
<g id="edge23" class="edge">
<title>2012&#45;&#45;4148</title>
<path fill="none" stroke="black" d="M297.49,-176.91C305.03,-161.75 315.99,-139.71 323.52,-124.55"/>
<text text-anchor="middle" x="325.12" y="-145.7" font-family="Times,serif" font-size="14.00">176</text>
</g>
<!-- 2370 -->
<g id="node11" class="node">
<title>2370</title>
<ellipse fill="none" stroke="black" cx="105" cy="-1119" rx="40.6" ry="18"/>
<text text-anchor="middle" x="105" y="-1113.95" font-family="Times,serif" font-size="14.00">(35, 59)</text>
</g>
<!-- 2216&#45;&#45;2370 -->
<g id="edge15" class="edge">
<title>2216&#45;&#45;2370</title>
<path fill="none" stroke="black" d="M105,-1366.21C105,-1318.47 105,-1185.17 105,-1137.35"/>
<text text-anchor="middle" x="111.75" y="-1246.7" font-family="Times,serif" font-size="14.00">72</text>
</g>
<!-- 4221 -->
<g id="node16" class="node">
<title>4221</title>
<ellipse fill="none" stroke="black" cx="187" cy="-1296" rx="40.6" ry="18"/>
<text text-anchor="middle" x="187" y="-1290.95" font-family="Times,serif" font-size="14.00">(63, 41)</text>
</g>
<!-- 2216&#45;&#45;4221 -->
<g id="edge24" class="edge">
<title>2216&#45;&#45;4221</title>
<path fill="none" stroke="black" d="M120.04,-1367.63C134.74,-1352.12 157.01,-1328.63 171.77,-1313.06"/>
<text text-anchor="middle" x="164.12" y="-1335.2" font-family="Times,serif" font-size="14.00">198</text>
</g>
<!-- 2261 -->
<g id="node10" class="node">
<title>2261</title>
<ellipse fill="none" stroke="black" cx="228" cy="-372" rx="45.21" ry="18"/>
<text text-anchor="middle" x="228" y="-366.95" font-family="Times,serif" font-size="14.00">(33, 109)</text>
</g>
<!-- 2261&#45;&#45;1318 -->
<g id="edge8" class="edge">
<title>2261&#45;&#45;1318</title>
<path fill="none" stroke="black" d="M227.4,-353.91C226.88,-338.84 226.12,-316.99 225.6,-301.85"/>
<text text-anchor="middle" x="233.75" y="-322.7" font-family="Times,serif" font-size="14.00">28</text>
</g>
<!-- 2261&#45;&#45;2012 -->
<g id="edge11" class="edge">
<title>2261&#45;&#45;2012</title>
<path fill="none" stroke="black" d="M243.55,-354.73C255.27,-341.47 270.69,-321.71 279,-301.5 291.03,-272.23 291.41,-234.67 290.36,-213.17"/>
<text text-anchor="middle" x="299.12" y="-278.45" font-family="Times,serif" font-size="14.00">188</text>
</g>
<!-- 2370&#45;&#45;343 -->
<g id="edge7" class="edge">
<title>2370&#45;&#45;343</title>
<path fill="none" stroke="black" d="M87.76,-1102.29C81.77,-1096.48 75.2,-1089.68 69.75,-1083 60.69,-1071.9 51.87,-1058.31 45.52,-1047.88"/>
<text text-anchor="middle" x="80.12" y="-1069.7" font-family="Times,serif" font-size="14.00">234</text>
</g>
<!-- 2661 -->
<g id="node12" class="node">
<title>2661</title>
<ellipse fill="none" stroke="black" cx="110" cy="-780" rx="40.6" ry="18"/>
<text text-anchor="middle" x="110" y="-774.95" font-family="Times,serif" font-size="14.00">(39, 87)</text>
</g>
<!-- 2370&#45;&#45;2661 -->
<g id="edge16" class="edge">
<title>2370&#45;&#45;2661</title>
<path fill="none" stroke="black" d="M104.68,-1100.77C104.39,-1083.31 104,-1055.53 104,-1031.5 104,-1031.5 104,-1031.5 104,-877.25 104,-849.62 106.49,-817.63 108.26,-798.37"/>
<text text-anchor="middle" x="114.12" y="-971.45" font-family="Times,serif" font-size="14.00">180</text>
</g>
<!-- 4231 -->
<g id="node17" class="node">
<title>4231</title>
<ellipse fill="none" stroke="black" cx="180" cy="-1030.5" rx="40.6" ry="18"/>
<text text-anchor="middle" x="180" y="-1025.45" font-family="Times,serif" font-size="14.00">(63, 55)</text>
</g>
<!-- 2370&#45;&#45;4231 -->
<g id="edge25" class="edge">
<title>2370&#45;&#45;4231</title>
<path fill="none" stroke="black" d="M117.42,-1101.41C125.28,-1091.13 135.8,-1077.79 145.75,-1066.5 151.48,-1059.99 158.08,-1053.11 163.95,-1047.19"/>
<text text-anchor="middle" x="156.12" y="-1069.7" font-family="Times,serif" font-size="14.00">164</text>
</g>
<!-- 2661&#45;&#45;628 -->
<g id="edge12" class="edge">
<title>2661&#45;&#45;628</title>
<path fill="none" stroke="black" d="M99.58,-762.32C88.95,-743.66 74,-712.19 74,-682.75 74,-682.75 74,-682.75 74,-282.5 74,-258.47 74,-230.69 74,-213.23"/>
<text text-anchor="middle" x="84.12" y="-499.7" font-family="Times,serif" font-size="14.00">148</text>
</g>
<!-- 2661&#45;&#45;2261 -->
<g id="edge14" class="edge">
<title>2661&#45;&#45;2261</title>
<path fill="none" stroke="black" d="M111.15,-761.62C112.34,-742.35 114,-710.35 114,-682.75 114,-682.75 114,-682.75 114,-503.75 114,-450.29 168.8,-408.11 202.41,-387.26"/>
<text text-anchor="middle" x="124.12" y="-588.2" font-family="Times,serif" font-size="14.00">112</text>
</g>
<!-- 3598 -->
<g id="node13" class="node">
<title>3598</title>
<ellipse fill="none" stroke="black" cx="232" cy="-460.5" rx="40.6" ry="18"/>
<text text-anchor="middle" x="232" y="-455.45" font-family="Times,serif" font-size="14.00">(53, 99)</text>
</g>
<!-- 3598&#45;&#45;2261 -->
<g id="edge17" class="edge">
<title>3598&#45;&#45;2261</title>
<path fill="none" stroke="black" d="M231.21,-442.41C230.51,-427.34 229.5,-405.49 228.8,-390.35"/>
<text text-anchor="middle" x="241.12" y="-411.2" font-family="Times,serif" font-size="14.00">122</text>
</g>
<!-- 3598&#45;&#45;4148 -->
<g id="edge22" class="edge">
<title>3598&#45;&#45;4148</title>
<path fill="none" stroke="black" d="M268.21,-451.82C306.68,-441.29 362,-418.27 362,-373 362,-373 362,-373 362,-194 362,-168.73 350.42,-141.48 341.65,-124.46"/>
<text text-anchor="middle" x="372.12" y="-278.45" font-family="Times,serif" font-size="14.00">302</text>
</g>
<!-- 3929&#45;&#45;4221 -->
<g id="edge26" class="edge">
<title>3929&#45;&#45;4221</title>
<path fill="none" stroke="black" d="M200.64,-1366.41C197.68,-1351.34 193.38,-1329.49 190.41,-1314.35"/>
<text text-anchor="middle" x="208.12" y="-1335.2" font-family="Times,serif" font-size="14.00">166</text>
</g>
<!-- 5422 -->
<g id="node21" class="node">
<title>5422</title>
<ellipse fill="none" stroke="black" cx="457" cy="-1119" rx="40.6" ry="18"/>
<text text-anchor="middle" x="457" y="-1113.95" font-family="Times,serif" font-size="14.00">(81, 13)</text>
</g>
<!-- 3929&#45;&#45;5422 -->
<g id="edge28" class="edge">
<title>3929&#45;&#45;5422</title>
<path fill="none" stroke="black" d="M219.44,-1367.41C264.72,-1320.26 396.74,-1182.76 441.75,-1135.88"/>
<text text-anchor="middle" x="346.12" y="-1246.7" font-family="Times,serif" font-size="14.00">160</text>
</g>
<!-- 5639 -->
<g id="node23" class="node">
<title>5639</title>
<ellipse fill="none" stroke="black" cx="332" cy="-18" rx="45.21" ry="18"/>
<text text-anchor="middle" x="332" y="-12.95" font-family="Times,serif" font-size="14.00">(83, 135)</text>
</g>
<!-- 4148&#45;&#45;5639 -->
<g id="edge34" class="edge">
<title>4148&#45;&#45;5639</title>
<path fill="none" stroke="black" d="M332,-88.41C332,-73.34 332,-51.49 332,-36.35"/>
<text text-anchor="middle" x="338.75" y="-57.2" font-family="Times,serif" font-size="14.00">92</text>
</g>
<!-- 4221&#45;&#45;4231 -->
<g id="edge21" class="edge">
<title>4221&#45;&#45;4231</title>
<path fill="none" stroke="black" d="M186.54,-1277.71C185.27,-1229.97 181.73,-1096.67 180.46,-1048.85"/>
<text text-anchor="middle" x="190.75" y="-1158.2" font-family="Times,serif" font-size="14.00">46</text>
</g>
<!-- 5153 -->
<g id="node19" class="node">
<title>5153</title>
<ellipse fill="none" stroke="black" cx="270" cy="-1207.5" rx="40.6" ry="18"/>
<text text-anchor="middle" x="270" y="-1202.45" font-family="Times,serif" font-size="14.00">(77, 31)</text>
</g>
<!-- 4221&#45;&#45;5153 -->
<g id="edge30" class="edge">
<title>4221&#45;&#45;5153</title>
<path fill="none" stroke="black" d="M202.22,-1279.13C217.1,-1263.62 239.64,-1240.13 254.59,-1224.56"/>
<text text-anchor="middle" x="242.75" y="-1246.7" font-family="Times,serif" font-size="14.00">72</text>
</g>
<!-- 4372 -->
<g id="node18" class="node">
<title>4372</title>
<ellipse fill="none" stroke="black" cx="180" cy="-922.5" rx="40.6" ry="18"/>
<text text-anchor="middle" x="180" y="-917.45" font-family="Times,serif" font-size="14.00">(65, 81)</text>
</g>
<!-- 4231&#45;&#45;4372 -->
<g id="edge27" class="edge">
<title>4231&#45;&#45;4372</title>
<path fill="none" stroke="black" d="M180,-1012.47C180,-992.81 180,-960.63 180,-940.84"/>
<text text-anchor="middle" x="190.12" y="-971.45" font-family="Times,serif" font-size="14.00">136</text>
</g>
<!-- 4372&#45;&#45;2661 -->
<g id="edge19" class="edge">
<title>4372&#45;&#45;2661</title>
<path fill="none" stroke="black" d="M161.94,-906.07C156.15,-900.39 150.11,-893.6 145.75,-886.5 136.49,-871.42 122.2,-823.99 114.8,-798.16"/>
<text text-anchor="middle" x="156.12" y="-873.2" font-family="Times,serif" font-size="14.00">180</text>
</g>
<!-- 4372&#45;&#45;3598 -->
<g id="edge18" class="edge">
<title>4372&#45;&#45;3598</title>
<path fill="none" stroke="black" d="M180,-904.27C180,-886.81 180,-859.03 180,-835 180,-835 180,-835 180,-548 180,-520.14 200.06,-493.52 215.26,-477.35"/>
<text text-anchor="middle" x="190.12" y="-676.7" font-family="Times,serif" font-size="14.00">106</text>
</g>
<!-- 5468 -->
<g id="node22" class="node">
<title>5468</title>
<ellipse fill="none" stroke="black" cx="249" cy="-834" rx="40.6" ry="18"/>
<text text-anchor="middle" x="249" y="-828.95" font-family="Times,serif" font-size="14.00">(81, 81)</text>
</g>
<!-- 4372&#45;&#45;5468 -->
<g id="edge33" class="edge">
<title>4372&#45;&#45;5468</title>
<path fill="none" stroke="black" d="M192.98,-905.23C205.23,-889.86 223.53,-866.93 235.84,-851.49"/>
<text text-anchor="middle" x="227.75" y="-873.2" font-family="Times,serif" font-size="14.00">64</text>
</g>
<!-- 5153&#45;&#45;5422 -->
<g id="edge32" class="edge">
<title>5153&#45;&#45;5422</title>
<path fill="none" stroke="black" d="M297.19,-1193.92C332.54,-1177.57 393.95,-1149.16 429.47,-1132.73"/>
<text text-anchor="middle" x="386.75" y="-1158.2" font-family="Times,serif" font-size="14.00">94</text>
</g>
<!-- 5858 -->
<g id="node24" class="node">
<title>5858</title>
<ellipse fill="none" stroke="black" cx="249" cy="-1119" rx="40.6" ry="18"/>
<text text-anchor="middle" x="249" y="-1113.95" font-family="Times,serif" font-size="14.00">(87, 55)</text>
</g>
<!-- 5153&#45;&#45;5858 -->
<g id="edge37" class="edge">
<title>5153&#45;&#45;5858</title>
<path fill="none" stroke="black" d="M265.85,-1189.41C262.19,-1174.34 256.89,-1152.49 253.21,-1137.35"/>
<text text-anchor="middle" x="272.12" y="-1158.2" font-family="Times,serif" font-size="14.00">118</text>
</g>
<!-- 6797 -->
<g id="node25" class="node">
<title>6797</title>
<ellipse fill="none" stroke="black" cx="353" cy="-1119" rx="45.21" ry="18"/>
<text text-anchor="middle" x="353" y="-1113.95" font-family="Times,serif" font-size="14.00">(101, 29)</text>
</g>
<!-- 5153&#45;&#45;6797 -->
<g id="edge43" class="edge">
<title>5153&#45;&#45;6797</title>
<path fill="none" stroke="black" d="M285.22,-1190.63C300.01,-1175.22 322.36,-1151.93 337.31,-1136.35"/>
<text text-anchor="middle" x="329.12" y="-1158.2" font-family="Times,serif" font-size="14.00">106</text>
</g>
<!-- 5338 -->
<g id="node20" class="node">
<title>5338</title>
<ellipse fill="none" stroke="black" cx="253" cy="-549" rx="45.21" ry="18"/>
<text text-anchor="middle" x="253" y="-543.95" font-family="Times,serif" font-size="14.00">(79, 101)</text>
</g>
<!-- 5338&#45;&#45;3598 -->
<g id="edge29" class="edge">
<title>5338&#45;&#45;3598</title>
<path fill="none" stroke="black" d="M248.85,-530.91C245.19,-515.84 239.89,-493.99 236.21,-478.85"/>
<text text-anchor="middle" x="251.75" y="-499.7" font-family="Times,serif" font-size="14.00">80</text>
</g>
<!-- 5338&#45;&#45;5639 -->
<g id="edge36" class="edge">
<title>5338&#45;&#45;5639</title>
<path fill="none" stroke="black" d="M232.89,-532.47C217.23,-519.49 195.88,-499.72 182,-478.5 154.55,-436.53 142,-423.15 142,-373 142,-373 142,-373 142,-105.5 142,-42.07 230.78,-24.94 286.97,-20.45"/>
<text text-anchor="middle" x="152.12" y="-278.45" font-family="Times,serif" font-size="14.00">314</text>
</g>
<!-- 7591 -->
<g id="node30" class="node">
<title>7591</title>
<ellipse fill="none" stroke="black" cx="461" cy="-1030.5" rx="45.21" ry="18"/>
<text text-anchor="middle" x="461" y="-1025.45" font-family="Times,serif" font-size="14.00">(113, 11)</text>
</g>
<!-- 5422&#45;&#45;7591 -->
<g id="edge40" class="edge">
<title>5422&#45;&#45;7591</title>
<path fill="none" stroke="black" d="M457.79,-1100.91C458.48,-1085.84 459.49,-1063.99 460.19,-1048.85"/>
<text text-anchor="middle" x="469.12" y="-1069.7" font-family="Times,serif" font-size="14.00">250</text>
</g>
<!-- 5468&#45;&#45;5338 -->
<g id="edge31" class="edge">
<title>5468&#45;&#45;5338</title>
<path fill="none" stroke="black" d="M249.24,-815.72C249.96,-765.2 252.03,-618.1 252.75,-567.41"/>
<text text-anchor="middle" x="262.12" y="-676.7" font-family="Times,serif" font-size="14.00">106</text>
</g>
<!-- 6978 -->
<g id="node27" class="node">
<title>6978</title>
<ellipse fill="none" stroke="black" cx="324" cy="-726" rx="45.21" ry="18"/>
<text text-anchor="middle" x="324" y="-720.95" font-family="Times,serif" font-size="14.00">(103, 87)</text>
</g>
<!-- 5468&#45;&#45;6978 -->
<g id="edge45" class="edge">
<title>5468&#45;&#45;6978</title>
<path fill="none" stroke="black" d="M255.46,-815.9C261.63,-800.84 271.89,-778.75 284.75,-762 290.19,-754.9 297.22,-748.11 303.82,-742.43"/>
<text text-anchor="middle" x="295.12" y="-774.95" font-family="Times,serif" font-size="14.00">124</text>
</g>
<!-- 5858&#45;&#45;4231 -->
<g id="edge35" class="edge">
<title>5858&#45;&#45;4231</title>
<path fill="none" stroke="black" d="M232.33,-1102.19C226.52,-1096.37 220.12,-1089.59 214.75,-1083 205.75,-1071.97 196.79,-1058.62 190.23,-1048.28"/>
<text text-anchor="middle" x="225.12" y="-1069.7" font-family="Times,serif" font-size="14.00">168</text>
</g>
<!-- 5858&#45;&#45;5468 -->
<g id="edge38" class="edge">
<title>5858&#45;&#45;5468</title>
<path fill="none" stroke="black" d="M248.22,-1100.82C247.18,-1076.97 245.4,-1032.47 244.75,-994.5 243.86,-942.71 246.53,-881.47 248.04,-852.23"/>
<text text-anchor="middle" x="255.12" y="-971.45" font-family="Times,serif" font-size="14.00">128</text>
</g>
<!-- 6822 -->
<g id="node26" class="node">
<title>6822</title>
<ellipse fill="none" stroke="black" cx="319" cy="-976.5" rx="45.21" ry="18"/>
<text text-anchor="middle" x="319" y="-971.45" font-family="Times,serif" font-size="14.00">(101, 63)</text>
</g>
<!-- 5858&#45;&#45;6822 -->
<g id="edge44" class="edge">
<title>5858&#45;&#45;6822</title>
<path fill="none" stroke="black" d="M257.44,-1101.05C270.9,-1074.05 297.05,-1021.55 310.52,-994.51"/>
<text text-anchor="middle" x="280.75" y="-1069.7" font-family="Times,serif" font-size="14.00">98</text>
</g>
<!-- 6797&#45;&#45;6822 -->
<g id="edge48" class="edge">
<title>6797&#45;&#45;6822</title>
<path fill="none" stroke="black" d="M348.38,-1100.93C346.87,-1095.24 345.21,-1088.85 343.75,-1083 336.01,-1051.97 327.63,-1015.63 322.88,-994.71"/>
<text text-anchor="middle" x="353.12" y="-1069.7" font-family="Times,serif" font-size="14.00">206</text>
</g>
<!-- 6797&#45;&#45;7591 -->
<g id="edge49" class="edge">
<title>6797&#45;&#45;7591</title>
<path fill="none" stroke="black" d="M372.56,-1102.34C392.13,-1086.66 422.06,-1062.68 441.58,-1047.05"/>
<text text-anchor="middle" x="426.12" y="-1069.7" font-family="Times,serif" font-size="14.00">110</text>
</g>
<!-- 8953 -->
<g id="node35" class="node">
<title>8953</title>
<ellipse fill="none" stroke="black" cx="448" cy="-922.5" rx="45.21" ry="18"/>
<text text-anchor="middle" x="448" y="-917.45" font-family="Times,serif" font-size="14.00">(133, 43)</text>
</g>
<!-- 6797&#45;&#45;8953 -->
<g id="edge55" class="edge">
<title>6797&#45;&#45;8953</title>
<path fill="none" stroke="black" d="M358.37,-1100.99C367.64,-1071.67 385.74,-1014.55 386.75,-1012.5 400.05,-985.39 420.85,-957.18 434.45,-939.97"/>
<text text-anchor="middle" x="396.12" y="-1025.45" font-family="Times,serif" font-size="14.00">246</text>
</g>
<!-- 6822&#45;&#45;6978 -->
<g id="edge39" class="edge">
<title>6822&#45;&#45;6978</title>
<path fill="none" stroke="black" d="M319.35,-958.03C320.27,-912.4 322.73,-790.06 323.65,-744.45"/>
<text text-anchor="middle" x="332.12" y="-873.2" font-family="Times,serif" font-size="14.00">142</text>
</g>
<!-- 8426 -->
<g id="node31" class="node">
<title>8426</title>
<ellipse fill="none" stroke="black" cx="440" cy="-834" rx="45.21" ry="18"/>
<text text-anchor="middle" x="440" y="-828.95" font-family="Times,serif" font-size="14.00">(125, 63)</text>
</g>
<!-- 6822&#45;&#45;8426 -->
<g id="edge51" class="edge">
<title>6822&#45;&#45;8426</title>
<path fill="none" stroke="black" d="M331.13,-958.76C341.93,-944.12 358.34,-922.46 373.75,-904.5 390.03,-885.52 409.98,-864.92 423.7,-851.12"/>
<text text-anchor="middle" x="383.12" y="-917.45" font-family="Times,serif" font-size="14.00">116</text>
</g>
<!-- 7525 -->
<g id="node28" class="node">
<title>7525</title>
<ellipse fill="none" stroke="black" cx="327" cy="-637.5" rx="49.82" ry="18"/>
<text text-anchor="middle" x="327" y="-632.45" font-family="Times,serif" font-size="14.00">(111, 101)</text>
</g>
<!-- 6978&#45;&#45;7525 -->
<g id="edge46" class="edge">
<title>6978&#45;&#45;7525</title>
<path fill="none" stroke="black" d="M324.59,-707.91C325.11,-692.84 325.87,-670.99 326.4,-655.85"/>
<text text-anchor="middle" x="332.75" y="-676.7" font-family="Times,serif" font-size="14.00">54</text>
</g>
<!-- 8843 -->
<g id="node34" class="node">
<title>8843</title>
<ellipse fill="none" stroke="black" cx="440" cy="-637.5" rx="45.21" ry="18"/>
<text text-anchor="middle" x="440" y="-632.45" font-family="Times,serif" font-size="14.00">(131, 87)</text>
</g>
<!-- 6978&#45;&#45;8843 -->
<g id="edge54" class="edge">
<title>6978&#45;&#45;8843</title>
<path fill="none" stroke="black" d="M344.74,-709.54C365.85,-693.79 398.39,-669.53 419.44,-653.83"/>
<text text-anchor="middle" x="402.12" y="-676.7" font-family="Times,serif" font-size="14.00">164</text>
</g>
<!-- 7525&#45;&#45;5338 -->
<g id="edge41" class="edge">
<title>7525&#45;&#45;5338</title>
<path fill="none" stroke="black" d="M312.73,-619.82C299.54,-604.41 280.06,-581.64 266.97,-566.33"/>
<text text-anchor="middle" x="307.12" y="-588.2" font-family="Times,serif" font-size="14.00">176</text>
</g>
<!-- 7547 -->
<g id="node29" class="node">
<title>7547</title>
<ellipse fill="none" stroke="black" cx="558" cy="-372" rx="49.82" ry="18"/>
<text text-anchor="middle" x="558" y="-366.95" font-family="Times,serif" font-size="14.00">(111, 131)</text>
</g>
<!-- 7525&#45;&#45;7547 -->
<g id="edge47" class="edge">
<title>7525&#45;&#45;7547</title>
<path fill="none" stroke="black" d="M364.68,-625.31C371.75,-623.31 379.08,-621.29 386,-619.5 420.44,-610.57 432.82,-618.63 464,-601.5 483.14,-590.98 487.69,-585.69 499,-567 534.7,-507.96 550.32,-425.6 555.68,-390.25"/>
<text text-anchor="middle" x="540.12" y="-499.7" font-family="Times,serif" font-size="14.00">194</text>
</g>
<!-- 8723 -->
<g id="node32" class="node">
<title>8723</title>
<ellipse fill="none" stroke="black" cx="440" cy="-549" rx="49.82" ry="18"/>
<text text-anchor="middle" x="440" y="-543.95" font-family="Times,serif" font-size="14.00">(129, 103)</text>
</g>
<!-- 7525&#45;&#45;8723 -->
<g id="edge52" class="edge">
<title>7525&#45;&#45;8723</title>
<path fill="none" stroke="black" d="M347.46,-620.84C367.81,-605.26 398.87,-581.48 419.3,-565.84"/>
<text text-anchor="middle" x="399.75" y="-588.2" font-family="Times,serif" font-size="14.00">84</text>
</g>
<!-- 7547&#45;&#45;5639 -->
<g id="edge42" class="edge">
<title>7547&#45;&#45;5639</title>
<path fill="none" stroke="black" d="M533.36,-356.12C511.83,-341.03 484,-315.53 484,-284.5 484,-284.5 484,-284.5 484,-105.5 484,-54.79 419.31,-33.43 374.34,-24.71"/>
<text text-anchor="middle" x="494.12" y="-189.95" font-family="Times,serif" font-size="14.00">196</text>
</g>
<!-- 7591&#45;&#45;8953 -->
<g id="edge56" class="edge">
<title>7591&#45;&#45;8953</title>
<path fill="none" stroke="black" d="M458.91,-1012.47C456.5,-992.81 452.55,-960.63 450.12,-940.84"/>
<text text-anchor="middle" x="466.12" y="-971.45" font-family="Times,serif" font-size="14.00">468</text>
</g>
<!-- 8426&#45;&#45;8843 -->
<g id="edge58" class="edge">
<title>8426&#45;&#45;8843</title>
<path fill="none" stroke="black" d="M440,-815.74C440,-778.83 440,-692.6 440,-655.72"/>
<text text-anchor="middle" x="450.12" y="-720.95" font-family="Times,serif" font-size="14.00">202</text>
</g>
<!-- 8739 -->
<g id="node33" class="node">
<title>8739</title>
<ellipse fill="none" stroke="black" cx="440" cy="-460.5" rx="49.82" ry="18"/>
<text text-anchor="middle" x="440" y="-455.45" font-family="Times,serif" font-size="14.00">(129, 127)</text>
</g>
<!-- 8723&#45;&#45;8739 -->
<g id="edge53" class="edge">
<title>8723&#45;&#45;8739</title>
<path fill="none" stroke="black" d="M440,-530.91C440,-515.84 440,-493.99 440,-478.85"/>
<text text-anchor="middle" x="450.12" y="-499.7" font-family="Times,serif" font-size="14.00">144</text>
</g>
<!-- 8739&#45;&#45;7547 -->
<g id="edge50" class="edge">
<title>8739&#45;&#45;7547</title>
<path fill="none" stroke="black" d="M461.37,-443.84C482.75,-428.16 515.46,-404.18 536.79,-388.55"/>
<text text-anchor="middle" x="519.12" y="-411.2" font-family="Times,serif" font-size="14.00">114</text>
</g>
<!-- 9439 -->
<g id="node36" class="node">
<title>9439</title>
<ellipse fill="none" stroke="black" cx="440" cy="-372" rx="49.82" ry="18"/>
<text text-anchor="middle" x="440" y="-366.95" font-family="Times,serif" font-size="14.00">(140, 139)</text>
</g>
<!-- 8739&#45;&#45;9439 -->
<g id="edge60" class="edge">
<title>8739&#45;&#45;9439</title>
<path fill="none" stroke="black" d="M440,-442.41C440,-427.34 440,-405.49 440,-390.35"/>
<text text-anchor="middle" x="450.12" y="-411.2" font-family="Times,serif" font-size="14.00">103</text>
</g>
<!-- 8843&#45;&#45;8723 -->
<g id="edge59" class="edge">
<title>8843&#45;&#45;8723</title>
<path fill="none" stroke="black" d="M440,-619.41C440,-604.34 440,-582.49 440,-567.35"/>
<text text-anchor="middle" x="450.12" y="-588.2" font-family="Times,serif" font-size="14.00">110</text>
</g>
<!-- 8953&#45;&#45;8426 -->
<g id="edge57" class="edge">
<title>8953&#45;&#45;8426</title>
<path fill="none" stroke="black" d="M446.42,-904.41C445.02,-889.34 443,-867.49 441.6,-852.35"/>
<text text-anchor="middle" x="454.12" y="-873.2" font-family="Times,serif" font-size="14.00">164</text>
</g>
</g>
</svg>
